# xmcd
#
# Track frame offsets:
#	150
#	16662
#	31250
#	48225
#	65425
#	77700
#	94575
#	104775
#	121650
#	137287
#	148987
#	166100
#	176662
#	189970
#
# Disc length: 2808 seconds
#
# Revision: 1
# Processed by: cddbd v1.5.2PL0 Copyright (c) Steve Scherf et al.
# Submitted via: EasyCDDAExtractor 7.0.3.1
#
DISCID=ac0af60e
DTITLE=Various Artist - Australia's Favorite Partner Dancing - Vol-1 - 2 Step
DYEAR=1900
DGENRE=Country
TTITLE0=Shenandoah - Next to You, Next to Me
TTITLE1=Dolly Parton - I'll Make Your Bed
TTITLE2=Patty Loveless - Halfway Down
TTITLE3=Collin Raye - On the Verge
TTITLE4=Joe Diffie - New Way
TTITLE5=Wade Hayes - This is the Life For Me
TTITLE6=Rick Trevino - Poor, Broke, Mixed up, Mess of Heart
TTITLE7=Ricochet - Rowdy
TTITLE8=Patty Loveless - Tear Stained Letter
TTITLE9=Doug Stone - Look Where She is Today
TTITLE10=Shenandoah - Any Old Stretch of Blacktop
TTITLE11=Troy Cassar-Daley - Good Time Friday Night
TTITLE12=Dolly Parton - Runaway Feelin'
TTITLE13=James Bonamy - Dog On A Toolbox
EXTD=
EXTT0=
EXTT1=
EXTT2=
EXTT3=
EXTT4=
EXTT5=
EXTT6=
EXTT7=
EXTT8=
EXTT9=
EXTT10=
EXTT11=
EXTT12=
EXTT13=
PLAYORDER=
